<?xml version="1.0" encoding="UTF-8"?>
<svg width="244px" height="88.1782178px" viewBox="0 0 244 88.1782178" version="1.1" xmlns="http://www.w3.org/2000/svg" xmlns:xlink="http://www.w3.org/1999/xlink">
    <!-- Generator: Sketch 56.2 (81672) - https://sketch.com -->
    <desc>Created with Sketch.</desc>
    <g id="Page-1" stroke="none" stroke-width="1" fill="none" fill-rule="evenodd">
        <g id="CA_Logo_blk_rgb-01-Copy" fill="#000000" fill-rule="nonzero">
            <g id="Wordmark" transform="translate(97.237624, 1.207921)">
                <path d="M36.2074257,47.4531683 L36.2074257,49.1563366 C36.7389109,48.4919802 37.8079208,47.2478218 40.3022772,47.2478218 C41.6249505,47.2478218 42.8993069,47.6283168 43.7388119,48.6248515 C44.7051485,49.7965347 44.7051485,51.2460396 44.7051485,53.4806931 L44.7051485,60.6315842 L42.3617822,60.6315842 L42.3617822,54.2235644 C42.3617822,51.6023762 42.3617822,50.9682178 41.9571287,50.3038614 C41.4981188,49.5670297 40.7129703,49.2348515 39.8432673,49.2348515 C39.0037624,49.2348515 37.7837624,49.4643564 36.9442574,50.7326733 C36.2074257,51.8258416 36.2315842,52.9733663 36.2557426,54.6282178 L36.2557426,60.6315842 L33.9123762,60.6315842 L33.9123762,47.4531683 L36.2074257,47.4531683 L36.2074257,47.4531683 Z M48.4255446,43.5093069 L50.7689109,43.5093069 L50.7689109,47.4531683 L53.009604,47.4531683 L53.009604,49.41 L50.7689109,49.41 L50.7689109,60.6315842 L48.4255446,60.6315842 L48.4255446,49.41 L46.2633663,49.41 L46.2633663,47.4531683 L48.4255446,47.4531683 L48.4255446,43.5093069 Z M70.8445545,47.4773267 L70.8445545,49.6938614 C71.5572277,48.1658416 72.8013861,47.3806931 74.4562376,47.3806931 C74.8910891,47.3806931 75.2172277,47.4290099 75.4708911,47.4833663 L75.4708911,49.699901 C75.1387129,49.6757426 74.8065347,49.6455446 74.709901,49.6455446 C73.2845545,49.6455446 72.269901,50.4065347 71.8108911,50.9923762 C70.9472277,52.0855446 70.9472277,53.359901 70.9472277,56.2105941 L70.9472277,60.6376238 L68.6582178,60.6376238 L68.6582178,47.4833663 L70.8445545,47.4833663 L70.8445545,47.4773267 Z M88.2567327,49.41 L85.5328713,49.41 L85.5328713,60.6315842 L83.219703,60.6315842 L83.219703,49.41 L81.1058416,49.41 L81.1058416,47.4531683 L83.219703,47.4531683 C83.219703,46.3841584 83.219703,45.6473267 83.3706931,44.9829703 C83.829703,43.0986139 85.4060396,42.639604 87.0850495,42.639604 C87.260198,42.639604 87.9245545,42.6879208 88.2567327,42.7181188 L88.2567327,44.6749505 C87.900396,44.6507921 87.7494059,44.6507921 87.3930693,44.6507921 C85.5328713,44.6507921 85.5328713,45.109802 85.5328713,47.4471287 L88.2567327,47.4471287 L88.2567327,49.41 Z M99.9614851,58.9284158 C98.4576238,60.710099 96.5793069,60.8852475 95.099604,60.8852475 C94.1574257,60.8852475 91.9710891,60.8369307 90.4189109,58.8982178 C89.4767327,57.7506931 88.9935644,56.0475248 88.9935644,54.1148515 C88.9935644,49.3556436 91.6872277,47.1934653 95.2747525,47.1934653 C99.6474257,47.1934653 101.53182,50.400495 101.53182,54.0121782 C101.537822,56.2830693 100.825149,57.9077228 99.9614851,58.9284158 Z M98.2583168,50.5816832 C97.2678218,49.180495 95.7881188,49.1321782 95.2324752,49.1321782 C94.6466337,49.1321782 93.1729703,49.1865347 92.1824752,50.6843564 C91.4939604,51.7292079 91.3671287,53.1545545 91.3671287,54.0906931 C91.3671287,55.1355446 91.5181188,56.6092079 92.2066337,57.5755446 C92.6656436,58.209703 93.6561386,59.0250495 95.2566337,59.0250495 C95.8907921,59.0250495 96.5007921,58.8982178 97.0141584,58.6445545 C98.7414851,57.7808911 99.1280198,55.8723762 99.1280198,54.1148515 C99.1219802,52.7982178 98.8924752,51.4755446 98.2583168,50.5816832 Z M105.723267,47.4773267 L105.723267,49.6938614 C106.435941,48.1658416 107.680099,47.3806931 109.33495,47.3806931 C109.769802,47.3806931 110.095941,47.4290099 110.349604,47.4833663 L110.349604,49.699901 C110.017426,49.6757426 109.685248,49.6455446 109.588614,49.6455446 C108.163267,49.6455446 107.148614,50.4065347 106.689604,50.9923762 C105.825941,52.0855446 105.825941,53.359901 105.825941,56.2105941 L105.825941,60.6376238 L103.536931,60.6376238 L103.536931,47.4833663 L105.723267,47.4833663 L105.723267,47.4773267 Z M16.6753465,68.3079208 L19.0428713,68.3079208 L19.0428713,76.1956436 C19.0670297,76.7271287 19.0911881,77.2646535 19.2180198,77.7478218 C19.7011881,79.2758416 21.0238614,79.7590099 22.0928713,79.7590099 C24.9918812,79.7590099 25.070396,77.0351485 25.0945545,75.7124752 L25.0945545,68.3079208 L27.4379208,68.3079208 L27.4379208,76.1412871 C27.389604,77.3612871 27.3110891,78.9678218 26.0367327,80.290495 C25.0220792,81.3111881 23.4940594,81.74 22.0143564,81.74 C20.510495,81.74 19.0126733,81.3051485 18.0221782,80.290495 C16.7478218,78.9919802 16.7236634,77.439802 16.6753465,76.219802 L16.6753465,68.3079208 L16.6753465,68.3079208 Z M42.6577228,64.370099 L45.0010891,64.370099 L45.0010891,68.3139604 L47.2417822,68.3139604 L47.2417822,70.2707921 L45.0010891,70.2707921 L45.0010891,81.4923762 L42.6577228,81.4923762 L42.6577228,70.2707921 L40.4955446,70.2707921 L40.4955446,68.3139604 L42.6577228,68.3139604 L42.6577228,64.370099 Z M57.9862376,79.529505 C57.5030693,80.2180198 56.4340594,81.74 53.7887129,81.74 C50.2011881,81.74 48.3711881,78.8168317 48.3711881,74.8729703 C48.3711881,70.470099 50.7387129,68.0784158 53.8913861,68.0784158 C55.2140594,68.0784158 56.5125743,68.4589109 57.4789109,69.479604 C57.6540594,69.6547525 57.8110891,69.860099 57.9620792,70.0654455 L57.9137624,68.3079208 L60.2812871,68.3079208 L60.2812871,81.4863366 L57.9379208,81.4863366 L57.9862376,79.529505 Z M52.8525743,70.2707921 C51.0950495,71.0619802 50.7689109,72.970495 50.7689109,74.9514851 C50.7689109,76.4251485 50.9440594,78.7443564 52.9310891,79.6080198 C53.2874257,79.7590099 53.7222772,79.8858416 54.2537624,79.8858416 C54.6342574,79.8858416 54.9905941,79.8375248 55.3469307,79.7106931 C57.1527723,79.1006931 57.9137624,77.3975248 57.9137624,74.8488119 C57.9137624,73.3751485 57.660099,71.949802 56.7420792,70.9834653 C55.7757426,69.9627723 54.6825743,69.9627723 54.3262376,69.9627723 C53.969901,69.9627723 53.4082178,70.0171287 52.8525743,70.2707921 Z M65.8920792,63.5305941 L65.8920792,66.1517822 L63.5789109,66.1517822 L63.5789109,63.5305941 L65.8920792,63.5305941 Z M65.8920792,68.3079208 L65.8920792,81.4863366 L63.5789109,81.4863366 L63.5789109,68.3079208 L65.8920792,68.3079208 Z M71.4243564,68.3079208 L71.4243564,70.0110891 C71.9558416,69.3467327 73.0248515,68.1025743 75.5192079,68.1025743 C76.8418812,68.1025743 78.1162376,68.4830693 78.9557426,69.479604 C79.9220792,70.6512871 79.9220792,72.1007921 79.9220792,74.3354455 L79.9220792,81.4863366 L77.5787129,81.4863366 L77.5787129,75.0783168 C77.5787129,72.4571287 77.5787129,71.8229703 77.1740594,71.1586139 C76.7150495,70.4217822 75.929901,70.089604 75.060198,70.089604 C74.2206931,70.089604 73.0006931,70.3191089 72.1611881,71.5874257 C71.4243564,72.6805941 71.4485149,73.8281188 71.4726733,75.4829703 L71.4726733,81.4863366 L69.1293069,81.4863366 L69.1293069,68.3079208 L71.4243564,68.3079208 Z M91.5845545,79.529505 C91.1013861,80.2180198 90.0323762,81.74 87.3870297,81.74 C83.799505,81.74 81.969505,78.8168317 81.969505,74.8729703 C81.969505,70.470099 84.3370297,68.0784158 87.489703,68.0784158 C88.8123762,68.0784158 90.1108911,68.4589109 91.0772277,69.479604 C91.2523762,69.6547525 91.4094059,69.860099 91.560396,70.0654455 L91.5120792,68.3079208 L93.879604,68.3079208 L93.879604,81.4863366 L91.5362376,81.4863366 L91.5845545,79.529505 Z M86.4448515,70.2707921 C84.6873267,71.0619802 84.3611881,72.970495 84.3611881,74.9514851 C84.3611881,76.4251485 84.5363366,78.7443564 86.5233663,79.6080198 C86.879703,79.7590099 87.3145545,79.8858416 87.8460396,79.8858416 C88.2265347,79.8858416 88.5828713,79.8375248 88.9392079,79.7106931 C90.7450495,79.1006931 91.5060396,77.3975248 91.5060396,74.8488119 C91.5060396,73.3751485 91.2523762,71.949802 90.3343564,70.9834653 C89.3680198,69.9627723 88.2748515,69.9627723 87.9185149,69.9627723 C87.5621782,69.9627723 87.000495,70.0171287 86.4448515,70.2707921 Z M98.9649505,63.5305941 L98.9649505,69.9386139 C99.369604,69.4554455 100.541287,68.0542574 103.08396,68.0542574 C106.75,68.0542574 108.58,70.9532673 108.58,74.9212871 C108.58,76.829802 108.12099,78.5088119 107.257327,79.680495 C106.695644,80.4173267 105.348812,81.74 102.957129,81.74 C100.517129,81.74 99.2910891,80.4173267 98.9649505,80.0368317 L98.9649505,81.4863366 L96.6517822,81.4863366 L96.6517822,63.5245545 L98.9649505,63.5245545 L98.9649505,63.5305941 Z M99.750099,78.2611881 C100.335941,79.2516832 101.223762,79.8918812 102.649109,79.8918812 C103.180594,79.8918812 103.718119,79.7892079 104.177129,79.559703 C104.708614,79.2818812 105.167624,78.8470297 105.475644,78.339703 C106.109802,77.3190099 106.188317,75.6943564 106.188317,74.9816832 C106.188317,74.3958416 106.14,73.7858416 106.037327,73.1758416 C105.910495,72.5416832 105.403168,69.9688119 102.703465,69.9688119 C102.117624,69.9688119 101.555941,70.0956436 101.072772,70.3493069 C99.5205941,71.1646535 99.0132673,72.9221782 99.0132673,74.8246535 C99.0132673,75.9661386 99.140099,77.2163366 99.750099,78.2611881 Z M113.266733,63.5305941 L113.266733,66.1517822 L110.953564,66.1517822 L110.953564,63.5305941 L113.266733,63.5305941 Z M113.266733,68.3079208 L113.266733,81.4863366 L110.953564,81.4863366 L110.953564,68.3079208 L113.266733,68.3079208 Z M124.566832,63.5305941 L124.566832,66.1517822 L122.253663,66.1517822 L122.253663,63.5305941 L124.566832,63.5305941 Z M124.566832,68.3079208 L124.566832,81.4863366 L122.253663,81.4863366 L122.253663,68.3079208 L124.566832,68.3079208 Z M128.903267,64.370099 L131.246634,64.370099 L131.246634,68.3139604 L133.487327,68.3139604 L133.487327,70.2707921 L131.246634,70.2707921 L131.246634,81.4923762 L128.903267,81.4923762 L128.903267,70.2707921 L126.741089,70.2707921 L126.741089,68.3139604 L128.903267,68.3139604 L128.903267,64.370099 Z M136.64604,68.3079208 L140.233564,77.1136634 L143.899604,68.3079208 L146.496634,68.3079208 L138.433762,86.2455446 L135.939406,86.2455446 L139.019604,79.7590099 L133.904059,68.3079208 L136.64604,68.3079208 L136.64604,68.3079208 Z M17.69,54.5436634 L15.280198,54.5436634 L15.2620792,54.5436634 C15.2620792,54.5436634 15.2620792,54.5436634 15.2620792,54.5436634 L15.2620792,54.5436634 L15.2620792,54.5436634 C15.1110891,55.1053465 14.8574257,55.9629703 14.1447525,56.8568317 C13.1784158,58.0285149 11.7047525,58.789505 9.97138614,58.789505 C7.96019802,58.789505 6.38386139,57.7990099 5.4960396,56.500495 C4.5780198,55.1778218 4.2760396,53.2693069 4.2760396,51.7412871 C4.2760396,47.7732673 6.00336634,44.5662376 10.0257426,44.5662376 C12.8522772,44.5662376 14.4769307,46.2935644 14.9842574,48.7637624 L17.4423762,48.7637624 L17.3759406,48.3470297 L17.3759406,48.3470297 C17.2732673,47.7128713 17.0981188,46.8190099 16.4881188,45.7862376 C15.2439604,43.6482178 13.1059406,42.4282178 9.97742574,42.4282178 C4.7350495,42.4282178 1.73336634,46.039901 1.73336634,51.7171287 C1.73336634,56.6273267 4.14920792,60.8490099 9.85059406,60.8490099 C10.9679208,60.8490099 14.4527723,60.7463366 16.5424752,57.5936634 C17.2551485,56.5065347 17.6114851,55.2623762 17.6718812,54.7610891 C17.6839604,54.6463366 17.69,54.5436634 17.69,54.5436634 Z M30.1678218,49.1865347 C28.639802,47.2538614 26.4293069,47.199505 25.6924752,47.199505 C24.2429703,47.199505 22.509604,47.5316832 21.060099,49.3616832 C20.2205941,50.4548515 19.5622772,52.0070297 19.5622772,54.1450495 C19.5622772,57.4547525 21.1386139,59.719604 23.2766337,60.5289109 C24.0376238,60.8067327 24.8771287,60.8852475 25.7468317,60.8852475 C26.5863366,60.8852475 29.1048515,60.8852475 30.6328713,58.620396 C31.2005941,57.7808911 31.3636634,57.0561386 31.4421782,56.5729703 L31.4059406,56.5729703 L29.0082178,56.5729703 C28.8270297,57.3520792 28.2472277,58.9525743 25.8736634,58.9525743 C23.2766337,58.9525743 21.9841584,57.1708911 21.9841584,54.6523762 L31.5508911,54.6523762 C31.5931683,52.6955446 31.3636634,50.6843564 30.1678218,49.1865347 Z M21.9720792,52.7740594 C22.3525743,50.690396 23.4759406,49.2106931 25.7347525,49.2106931 C27.8727723,49.2106931 28.9659406,50.7085149 29.1169307,52.7740594 L21.9720792,52.7740594 Z M64.5875248,49.1865347 C63.059505,47.2538614 60.8490099,47.199505 60.1121782,47.199505 C58.6626733,47.199505 56.9293069,47.5316832 55.479802,49.3616832 C54.640297,50.4548515 53.9819802,52.0070297 53.9819802,54.1450495 C53.9819802,57.4547525 55.5583168,59.719604 57.6963366,60.5289109 C58.4573267,60.8067327 59.2968317,60.8852475 60.1665347,60.8852475 C61.0060396,60.8852475 63.5245545,60.8852475 65.0525743,58.620396 C65.620297,57.7808911 65.7833663,57.0561386 65.8618812,56.5729703 L65.8256436,56.5729703 L63.4279208,56.5729703 C63.2467327,57.3520792 62.6669307,58.9525743 60.2933663,58.9525743 C57.6963366,58.9525743 56.4038614,57.1708911 56.4038614,54.6523762 L65.9705941,54.6523762 C66.0128713,52.6955446 65.7833663,50.6843564 64.5875248,49.1865347 Z M56.3978218,52.7740594 C56.7783168,50.690396 57.9016832,49.2106931 60.160495,49.2106931 C62.2985149,49.2106931 63.3916832,50.7085149 63.5426733,52.7740594 L56.3978218,52.7740594 Z M13.7461386,65.9464356 C12.5986139,63.9594059 10.6659406,63.2769307 8.09910891,63.2769307 C5.65910891,63.2769307 3.54524752,64.0137624 2.55475248,66.0732673 C2.24673267,66.7074257 2.09574257,67.4442574 2.09574257,68.2112871 C2.09574257,70.1681188 3.11039604,71.339802 3.92574257,71.8471287 C4.48742574,72.2034653 4.91623762,72.3544554 6.44425743,72.8134653 L8.17158416,73.3207921 C10.3579208,73.9851485 12.1939604,74.5951485 12.1939604,76.6546535 C12.1939604,77.7719802 11.4329703,79.6321782 8.40108911,79.6321782 C7.48306931,79.6321782 5.60475248,79.5778218 4.45722772,77.9773267 C3.90762376,77.2344554 3.76267327,76.4734653 3.68415842,75.8453465 L1.17772277,75.8453465 C1.25019802,76.5761386 1.33475248,77.4337624 1.88435644,78.5390099 C2.80237624,80.3448515 4.25188119,81.0333663 5.59871287,81.389703 C6.35970297,81.5950495 7.22940594,81.7218812 8.16554455,81.7218812 C11.269901,81.7218812 14.6762376,80.3508911 14.6762376,76.479505 C14.6762376,72.7168317 11.5477228,71.720297 9.7660396,71.1646535 C8.82386139,70.8868317 7.39851485,70.4761386 7.19920792,70.4278218 C5.77386139,69.9929703 4.65653465,69.6668317 4.65653465,68.0361386 C4.65653465,66.3329703 5.9550495,65.3122772 8.06287129,65.3122772 C8.72118812,65.3122772 10.430396,65.3122772 11.4208911,66.7134653 C11.849703,67.2932673 11.9946535,67.9334653 12.0610891,68.4105941 L14.4648515,68.4105941 C14.3984158,67.7583168 14.3078218,66.9429703 13.7461386,65.9464356 Z M39.1909901,72.2819802 C39.1124752,69.5581188 37.2583168,68.0844554 34.2807921,68.0844554 C33.6707921,68.0844554 31.4059406,68.0844554 30.2342574,69.7634653 C29.7994059,70.3976238 29.6242574,71.1646535 29.6242574,71.8773267 C29.6242574,74.1663366 31.3274257,75.0058416 33.5137624,75.6158416 L34.2505941,75.8453465 C35.9537624,76.3285149 37.0469307,76.6848515 37.0469307,78.0075248 C37.0469307,79.3060396 35.8269307,79.9945545 34.3230693,79.9945545 C33.229901,79.9945545 32.1850495,79.6382178 31.6294059,78.6960396 C31.3153465,78.1705941 31.2428713,77.6028713 31.2126733,77.1619802 L29.0082178,77.1619802 C29.1410891,80.4535644 31.0979208,81.800396 34.2989109,81.800396 C39.360099,81.800396 39.360099,78.1887129 39.360099,77.8082178 C39.360099,75.0843564 36.9684158,74.3233663 35.5430693,73.8885149 L34.7518812,73.6590099 C33.3506931,73.2241584 33.3265347,73.2241584 32.9943564,73.0731683 C32.4085149,72.819505 31.9011881,72.4631683 31.9011881,71.599505 C31.9011881,70.76 32.4628713,69.8721782 34.2928713,69.8721782 C36.6724752,69.8721782 36.9744554,71.400198 37.0469307,72.3061386 L39.0279208,72.3061386 L39.1909901,72.2819802 Z M118.931881,63.5305941 L116.594554,63.5305941 L116.594554,81.4923762 L118.931881,81.4923762 L118.931881,63.5305941 Z" id="Shape"/>
                <path d="M72.7289109,35.730297 C72.7289109,38.8829703 70.0352475,40.1573267 66.9550495,40.1573267 C65.910198,40.1573267 65.0706931,40.030495 64.4365347,39.8493069 C63.5728713,39.6439604 62.1233663,39.1124752 61.2536634,37.6086139 C60.6919802,36.6664356 60.6013861,35.5853465 60.6013861,35.1625743 C61.0362376,35.1625743 64.2311881,35.1625743 64.2311881,35.1625743 L64.2311881,35.1686139 L64.2311881,35.1686139 C64.3821782,36.1107921 64.5875248,37.3549505 67.0577228,37.3549505 C67.5650495,37.3549505 68.9118812,37.2764356 68.9118812,36.1349505 C68.9118812,35.3437624 68.2475248,35.1142574 67.4382178,34.9149505 C67.0818812,34.8122772 65.3545545,34.4076238 64.9680198,34.3049505 C63.4641584,33.9244554 61.0785149,33.3386139 61.0785149,30.3852475 C61.0785149,29.6484158 61.2053465,28.3015842 62.6548515,27.2567327 C63.5970297,26.5923762 64.9438614,26.2118812 66.6228713,26.2118812 C67.9213861,26.2118812 69.3225743,26.4413861 70.439901,27.2023762 C71.5934653,27.9573267 72.3665347,29.4551485 72.3665347,30.8684158 C71.6538614,30.8684158 68.8273267,30.8684158 68.8273267,30.8684158 L68.8273267,30.8684158 L68.8273267,30.8684158 C68.7790099,30.439604 68.7125743,30.0772277 68.5072277,29.7752475 C68.4589109,29.6967327 67.9455446,28.959901 66.4960396,28.959901 C65.2216832,28.959901 64.690198,29.340396 64.690198,30.0289109 C64.690198,30.560396 65.0465347,30.8442574 66.0913861,31.0979208 C66.3994059,31.1764356 67.8972277,31.5327723 68.2535644,31.6052475 C69.9567327,32.0159406 72.7289109,32.6742574 72.7289109,35.730297 Z M26.4957426,5.35712871 C21.9418812,5.35712871 19.4716832,8.43732673 19.4716832,12.3509901 C19.4716832,16.0653465 21.7123762,19.2965347 26.0608911,19.2965347 C29.9805941,19.2965347 33.1091089,16.6511881 33.1091089,12.2724752 C33.1091089,8.73930693 30.9227723,5.35712871 26.4957426,5.35712871 Z M29.2679208,12.1758416 C29.2679208,12.8885149 29.219604,14.0843564 28.5794059,15.0265347 C28.0479208,15.8177228 27.2325743,16.2465347 26.290396,16.2465347 C25.4267327,16.2465347 23.9228713,15.890198 23.4638614,13.7763366 C23.3611881,13.2931683 23.3128713,12.7858416 23.3128713,12.3026733 C23.3128713,11.3846535 23.439703,9.50633663 24.9133663,8.6909901 C25.3965347,8.43732673 25.9280198,8.35881188 26.3628713,8.35881188 C26.9970297,8.35881188 27.9150495,8.50980198 28.6035644,9.53049505 C29.219604,10.4183168 29.2679208,11.4148515 29.2679208,12.1758416 Z M34.5767327,5.73762376 L34.5767327,18.9160396 L38.4179208,18.9160396 L38.4179208,14.6158416 C38.4179208,11.2336634 38.4662376,10.5693069 39.0279208,9.83247525 C39.5110891,9.19831683 40.2720792,8.86613861 41.3954455,8.86613861 C41.7759406,8.86613861 42.029604,8.89029703 42.2832673,8.94465347 L42.2832673,5.53831683 C42.029604,5.51415842 41.7759406,5.49 41.6491089,5.49 C39.5654455,5.49 38.7742574,6.60732673 38.2427723,7.90584158 L38.2427723,5.73762376 L34.5767327,5.73762376 Z M44.0105941,18.9160396 L47.7732673,18.9160396 L47.7732673,12.5321782 C47.7732673,11.2880198 47.7732673,10.6478218 47.9786139,10.1163366 C48.2322772,9.37950495 48.9449505,8.64267327 50.0139604,8.64267327 C50.2193069,8.64267327 51.6688119,8.66683168 51.9466337,10.3458416 C51.9949505,10.6780198 51.9949505,11.0041584 51.9949505,12.0248515 L51.9949505,18.9220792 L55.8119802,18.9220792 L55.8119802,11.7651485 C55.8119802,10.0378218 55.8119802,9.93514851 55.7636634,9.52445545 C55.4858416,6.72811881 53.4988119,5.42960396 51.2883168,5.42960396 C49.150297,5.42960396 48.0088119,6.77643564 47.6766337,7.23544554 L47.6766337,5.73762376 L44.0105941,5.73762376 L44.0105941,18.9160396 L44.0105941,18.9160396 Z M6.36574257,21.8150495 L0.235544554,39.7768317 L4.74108911,39.7768317 L5.88861386,35.959802 L11.6383168,35.959802 L12.81,39.7768317 L17.339703,39.7768317 L10.9558416,21.8150495 L6.36574257,21.8150495 L6.36574257,21.8150495 Z M8.67891089,25.7589109 L10.6357426,32.680297 L6.81871287,32.680297 L8.67891089,25.7589109 Z M18.7106931,26.5984158 L16.8263366,26.5984158 L16.8263366,29.4491089 L18.7106931,29.4491089 L18.7106931,39.7768317 L22.4492079,39.7768317 L22.4492079,29.4491089 L24.5630693,29.4491089 L24.5630693,26.5984158 L22.4492079,26.5984158 L22.4492079,22.6787129 L18.7106931,22.6787129 L18.7106931,26.5984158 Z M26.4655446,39.7768317 L30.2282178,39.7768317 L30.2282178,32.7044554 L30.149703,32.269604 L34.449901,39.7768317 L39.1849505,39.7768317 L34.2989109,32.1186139 L39.2332673,26.5984158 L34.4740594,26.5984158 L30.1255446,31.8166337 L30.2040594,31.4119802 L30.2040594,21.8210891 L26.4655446,21.8210891 L26.4655446,39.7768317 L26.4655446,39.7768317 Z M40.900198,21.8150495 L40.900198,25.1972277 L44.6145545,25.1972277 L44.6145545,21.8150495 L40.900198,21.8150495 Z M40.900198,26.5984158 L40.900198,39.7768317 L44.6145545,39.7768317 L44.6145545,26.5984158 L40.900198,26.5984158 L40.900198,26.5984158 Z M47.3021782,39.7768317 L51.0648515,39.7768317 L51.0648515,33.3929703 C51.0648515,32.1488119 51.0648515,31.5086139 51.270198,30.9771287 C51.5238614,30.240297 52.2365347,29.5034653 53.3055446,29.5034653 C53.5108911,29.5034653 54.960396,29.5276238 55.2382178,31.2066337 C55.2865347,31.5388119 55.2865347,31.8649505 55.2865347,32.8856436 L55.2865347,39.7828713 L59.1035644,39.7828713 L59.1035644,32.6319802 C59.1035644,30.9046535 59.1035644,30.8019802 59.0552475,30.3912871 C58.7774257,27.5949505 56.790396,26.2964356 54.579901,26.2964356 C52.4418812,26.2964356 51.300396,27.6432673 50.9682178,28.1022772 L50.9682178,26.6044554 L47.3021782,26.6044554 L47.3021782,39.7768317 L47.3021782,39.7768317 Z M80.8763366,26.2118812 C76.3224752,26.2118812 73.8522772,29.2920792 73.8522772,33.2057426 C73.8522772,36.920099 76.0929703,40.1512871 80.4414851,40.1512871 C84.3611881,40.1512871 87.489703,37.5059406 87.489703,33.1272277 C87.489703,29.600099 85.3033663,26.2118812 80.8763366,26.2118812 Z M83.6485149,33.0305941 C83.6485149,33.7432673 83.600198,34.9391089 82.96,35.8812871 C82.4285149,36.6724752 81.6131683,37.1012871 80.6709901,37.1012871 C79.8073267,37.1012871 78.3034653,36.7449505 77.8444554,34.6310891 C77.7417822,34.1479208 77.6934653,33.6405941 77.6934653,33.1574257 C77.6934653,32.2394059 77.820297,30.3610891 79.2939604,29.5457426 C79.7771287,29.2920792 80.3086139,29.2135644 80.7434653,29.2135644 C81.3776238,29.2135644 82.2956436,29.3645545 82.9841584,30.3852475 C83.600198,31.2791089 83.6485149,32.269604 83.6485149,33.0305941 Z M88.8848515,39.7768317 L92.6475248,39.7768317 L92.6475248,33.3929703 C92.6475248,32.1488119 92.6475248,31.5086139 92.8528713,30.9771287 C93.1065347,30.240297 93.8192079,29.5034653 94.8882178,29.5034653 C95.0935644,29.5034653 96.5430693,29.5276238 96.8208911,31.2066337 C96.8692079,31.5388119 96.8692079,31.8649505 96.8692079,32.8856436 L96.8692079,39.7828713 L100.686238,39.7828713 L100.686238,32.6319802 C100.686238,30.9046535 100.686238,30.8019802 100.637921,30.3912871 C100.360099,27.5949505 98.3730693,26.2964356 96.1625743,26.2964356 C94.0245545,26.2964356 92.8830693,27.6432673 92.5508911,28.1022772 L92.5508911,26.6044554 L88.8848515,26.6044554 L88.8848515,39.7768317 L88.8848515,39.7768317 Z M75.9721782,0.93009901 L72.1793069,0.93009901 L72.0645545,18.9160396 L75.8272277,18.9160396 L75.9721782,0.93009901 Z M82.4526733,0.93009901 L78.659802,0.93009901 L78.5450495,18.9160396 L82.3077228,18.9160396 L82.4526733,0.93009901 Z M13.9212871,12.6408911 L13.9212871,12.6469307 C13.8729703,13.1784158 13.8186139,13.740099 13.2629703,14.4708911 C12.7012871,15.2077228 11.6624752,15.920396 10.080099,15.920396 C8.67891089,15.920396 7.25356436,15.310396 6.38990099,13.9092079 C5.52623762,12.5865347 5.44772277,10.8833663 5.44772277,9.9170297 C5.44772277,8.74534653 5.55039604,7.09653465 6.46237624,5.71950495 C7.65821782,4.01633663 9.28891089,3.88950495 10.0982178,3.88950495 C12.1577228,3.88950495 13.3294059,5.06118812 13.8125743,6.66168317 L17.9376238,6.66168317 L17.8832673,6.31138614 L17.8772277,6.31138614 C17.7685149,5.69534653 17.460495,4.34851485 16.2586139,2.97148515 C14.1749505,0.628118812 11.2215842,0.531485149 10.0257426,0.531485149 C3.79287129,0.531485149 1.09316832,5.21217822 1.09316832,9.89287129 C1.09316832,13.0757426 2.31316832,15.4372277 3.73851485,16.8867327 C5.87653465,19.0730693 8.37089109,19.3267327 10.049901,19.3267327 C11.1430693,19.3267327 14.5252475,19.3025743 16.7659406,16.3250495 C17.8591089,14.8513861 18.010099,13.5287129 18.0886139,12.8885149 L18.1127723,12.6408911 L13.9212871,12.6408911 Z M66.5322772,14.8211881 L70.3915842,14.8211881 C70.3915842,14.8211881 70.3734653,14.9057426 70.3553465,14.9963366 C70.3432673,15.0446535 70.3251485,15.0990099 70.3251485,15.0990099 C70.15,15.6063366 69.9688119,16.2163366 69.1776238,17.1343564 C68.7186139,17.6416832 67.2449505,19.2723762 63.989604,19.2723762 C59.3572277,19.2723762 57.2977228,15.8660396 57.2977228,12.3268317 C57.2977228,8.46148515 59.7920792,5.35712871 64.0379208,5.35712871 C67.6737624,5.35712871 69.4554455,7.70049505 70.119802,10.1163366 C70.4761386,11.3906931 70.4761386,12.5865347 70.4761386,13.3958416 L61.2415842,13.3958416 C61.320099,13.9031683 61.3925743,14.4890099 61.8515842,15.1231683 C62.4857426,16.0411881 63.3010891,16.240495 64.0922772,16.240495 C65.7652475,16.2465347 66.3027723,15.2560396 66.5322772,14.8211881 Z M61.2657426,10.5753465 L66.5322772,10.5753465 C66.4839604,10.1948515 66.4054455,9.76 66.0491089,9.25267327 C65.3364356,8.2863199 64.2915842,8.2863199 63.989604,8.2863199 C61.8757426,8.28029703 61.4408911,9.9109901 61.2657426,10.5753465 Z" id="Shape"/>
            </g>
            <path d="M87.6890099,2.03534653 L87.6890099,82.8935644 L69.8963366,82.8935644 L69.8963366,75.4648515 C63.5849505,80.4052475 55.8240594,83.630396 47.3444554,84.4155446 L47.3444554,66.6953465 C59.3149505,64.8049505 68.4589109,54.6946535 68.4589109,42.5006931 C68.4589109,30.3067327 59.3149505,20.1964356 47.3444554,18.3060396 L47.3444554,0.483168317 C55.8240594,1.26831683 63.5849505,4.49346535 69.8963366,9.43386139 L69.8963366,2.03534653 L87.6890099,2.03534653 Z M0.483168317,42.4463366 C0.483168317,64.3821782 17.5027723,82.3983168 39.2453465,84.409505 L39.2453465,66.6893069 C27.2748515,64.7989109 18.1308911,54.6886139 18.1308911,42.4946535 C18.1308911,30.3006931 27.2748515,20.190396 39.2453465,18.3 L39.2453465,0.483168317 C17.5027723,2.49435644 0.483168317,20.510495 0.483168317,42.4463366 Z" id="Symbol"/>
        </g>
    </g>
</svg>